<svg width="285" height="67" viewBox="0 0 285 67" fill="none" xmlns="http://www.w3.org/2000/svg">
<path d="M64.0059 48.5299C64.0059 55.2218 58.5902 60.6657 51.9227 60.6657H21.4904C16.5288 60.6657 12.2596 57.6425 10.4036 53.3396L11.462 52.4144L13.6764 46.0885L9.40906 38.8318V17.9963C9.40906 11.3063 14.8305 5.8624 21.4904 5.8624H51.9227C58.5902 5.8624 64.0059 11.3063 64.0059 17.9963V48.5299ZM51.9227 0H21.4904C11.6084 0 3.56543 8.07487 3.56543 17.9963V48.5299C3.56543 58.4532 11.6084 66.5337 21.4904 66.5337H51.9227C61.8141 66.5337 69.8533 58.4532 69.8533 48.5299V17.9963C69.8533 8.07487 61.8141 0 51.9227 0Z" fill="#ECEDEE"/>
<path d="M57.0946 47.3666C57.7082 47.5693 58.4194 47.6838 59.2451 47.6838C62.4878 47.6838 64.0116 46.3927 64.0116 44.8501C64.0116 43.0486 61.5796 43.0561 61.3281 41.4723C61.0166 39.4925 61.2155 30.729 64.6009 25.8837L66.864 26.9102C66.864 26.9102 67.5077 27.2761 68.2864 27.2442C68.7894 27.2179 69.3148 26.9946 69.8196 26.4504C71.0994 25.0767 74.618 20.6011 75.7439 18.2573C76.0216 17.6793 71.2552 11.7024 68.581 9.52938C66.7551 8.0619 64.4376 7.18555 61.9136 7.18555C57.2447 7.18555 53.2776 10.1824 51.8139 14.3615C48.8339 16.4914 42.8871 19.9274 36.67 21.5732C29.3702 23.5061 21.802 21.6989 16.6639 21.9598C10.0547 22.2938 6.12136 27.1579 6.279 32.7857C6.44038 38.5055 10.3605 43.7073 10.3605 49.0762C10.3605 53.2834 6.94705 55.1375 4.59947 55.1375C1.78837 55.1375 1.60447 53.9871 0.748751 53.9871C0.403462 53.9871 0 54.278 0 54.7378C0 56.1583 3.4754 57.5132 5.44955 57.5132C10.7152 57.5132 12.9108 53.7394 12.9108 53.7394C12.9108 53.7394 14.2507 57.6465 19.4431 57.6465C23.5847 57.6465 25.3787 55.661 25.3787 53.9965C25.3787 52.651 24.5624 52.0768 23.9769 51.2849C23.1512 50.1627 23.1831 48.7909 23.1831 48.7909C23.1831 48.7909 24.0876 48.9373 25.435 48.9373C28.4431 48.9373 29.372 47.7138 29.372 46.5072C29.372 44.959 27.563 45.0659 27.563 42.5232C27.563 40.5978 28.6289 39.9617 29.5653 39.9617C30.5768 39.9617 34.4144 40.3332 39.0683 40.8099C40.6202 40.9656 44.4953 42.4725 44.4953 48.5094V50.6788C44.4953 54.3587 45.9684 58.915 52.452 58.915C56.8525 58.915 59.3239 56.4473 59.3239 54.6665C59.3239 53.503 58.3087 52.9944 57.8114 52.2945C56.3421 50.2321 57.0683 47.3666 57.0683 47.3666H57.0946Z" fill="#F96302"/>
<path d="M67.7722 21.0044C67.3444 21.0044 67.001 21.3459 67.001 21.77C67.001 22.1923 67.3444 22.5376 67.7722 22.5376C68.1926 22.5376 68.5323 22.1923 68.5323 21.77C68.5323 21.3459 68.1926 21.0044 67.7722 21.0044Z" fill="white"/>
<path d="M70.4372 18.762C70.0562 18.762 69.7466 19.0697 69.7466 19.4544C69.7466 19.8372 70.0562 20.1487 70.4372 20.1487C70.8162 20.1487 71.1277 19.8372 71.1277 19.4544C71.1277 19.0697 70.8162 18.762 70.4372 18.762Z" fill="white"/>
<path d="M71.681 16.1816C71.3676 16.1816 71.1086 16.4406 71.1086 16.754C71.1086 17.073 71.3676 17.3301 71.681 17.3301C71.9981 17.3301 72.2571 17.073 72.2571 16.754C72.2571 16.4406 71.9981 16.1816 71.681 16.1816Z" fill="white"/>
<path d="M49.7927 19.8183C50.2468 19.8183 50.6165 19.4486 50.6165 18.9889C50.6165 18.531 50.2468 18.1594 49.7927 18.1594C49.3348 18.1594 48.9651 18.531 48.9651 18.9889C48.9651 19.4486 49.3348 19.8183 49.7927 19.8183Z" fill="white"/>
<path d="M52.9697 39.8845C52.5137 39.8845 52.144 40.2542 52.144 40.714C52.144 41.1662 52.5137 41.5415 52.9697 41.5415C53.422 41.5415 53.7935 41.1662 53.7935 40.714C53.7935 40.2542 53.422 39.8845 52.9697 39.8845Z" fill="white"/>
<path d="M57.8865 40.7141C57.4342 40.7141 57.0608 41.0819 57.0608 41.5379C57.0608 41.9958 57.4342 42.3674 57.8865 42.3674C58.3444 42.3674 58.7178 41.9958 58.7178 41.5379C58.7178 41.0819 58.3444 40.7141 57.8865 40.7141Z" fill="white"/>
<path d="M53.653 32.3389C53.1951 32.3389 52.8254 32.7142 52.8254 33.1702C52.8254 33.6299 53.1951 33.9996 53.653 33.9996C54.1071 33.9996 54.4787 33.6299 54.4787 33.1702C54.4787 32.7142 54.1071 32.3389 53.653 32.3389Z" fill="white"/>
<path d="M56.4677 26.7261C56.9218 26.7261 57.2953 26.3602 57.2953 25.8967C57.2953 25.4425 56.9218 25.0691 56.4677 25.0691C56.0136 25.0691 55.6458 25.4425 55.6458 25.8967C55.6458 26.3602 56.0136 26.7261 56.4677 26.7261Z" fill="white"/>
<path d="M43.5832 23.3765C44.0373 23.3765 44.4089 23.0049 44.4089 22.547C44.4089 22.091 44.0373 21.7195 43.5832 21.7195C43.1272 21.7195 42.7556 22.091 42.7556 22.547C42.7556 23.0049 43.1272 23.3765 43.5832 23.3765Z" fill="white"/>
<path d="M48.207 38.1843C47.7472 38.1843 47.3738 38.5484 47.3738 39.01C47.3738 39.4679 47.7472 39.8395 48.207 39.8395C48.663 39.8395 49.0308 39.4679 49.0308 39.01C49.0308 38.5484 48.663 38.1843 48.207 38.1843Z" fill="white"/>
<path d="M45.931 27.46C46.3795 27.46 46.7492 27.0884 46.7492 26.6287C46.7492 26.1745 46.3795 25.803 45.931 25.803C45.4769 25.803 45.1016 26.1745 45.1016 26.6287C45.1016 27.0884 45.4769 27.46 45.931 27.46Z" fill="white"/>
<path d="M40.7085 32.1775C40.2544 32.1775 39.8828 32.5491 39.8828 33.0069C39.8828 33.4629 40.2544 33.8345 40.7085 33.8345C41.1608 33.8345 41.5361 33.4629 41.5361 33.0069C41.5361 32.5491 41.1608 32.1775 40.7085 32.1775Z" fill="white"/>
<path d="M49.2488 31.29C49.7048 31.29 50.0745 30.9203 50.0745 30.4643C50.0745 30.0083 49.7048 29.6367 49.2488 29.6367C48.7984 29.6367 48.4287 30.0083 48.4287 30.4643C48.4287 30.9203 48.7984 31.29 49.2488 31.29Z" fill="white"/>
<path d="M36.197 23.8606C35.7448 23.8606 35.3713 24.2359 35.3713 24.6938C35.3713 25.1498 35.7448 25.5214 36.197 25.5214C36.653 25.5214 37.0265 25.1498 37.0265 24.6938C37.0265 24.2359 36.653 23.8606 36.197 23.8606Z" fill="white"/>
<path d="M37.9948 28.1672C37.5407 28.1672 37.1729 28.5388 37.1729 28.9948C37.1729 29.4508 37.5407 29.8205 37.9948 29.8205C38.4508 29.8205 38.8224 29.4508 38.8224 28.9948C38.8224 28.5388 38.4508 28.1672 37.9948 28.1672Z" fill="white"/>
<path d="M44.047 35.3923C43.5928 35.3923 43.2231 35.7658 43.2231 36.2255C43.2231 36.6815 43.5928 37.0568 44.047 37.0568C44.503 37.0568 44.8764 36.6815 44.8764 36.2255C44.8764 35.7658 44.503 35.3923 44.047 35.3923Z" fill="white"/>
<path d="M52.5383 23.6655C52.9943 23.6655 53.3678 23.2977 53.3678 22.8435C53.3678 22.3856 52.9943 22.0122 52.5383 22.0122C52.0823 22.0122 51.7126 22.3856 51.7126 22.8435C51.7126 23.2977 52.0823 23.6655 52.5383 23.6655Z" fill="white"/>
<path d="M58.6146 33.9282C58.1586 33.9282 57.7908 34.296 57.7908 34.7558C57.7908 35.2137 58.1586 35.5852 58.6146 35.5852C59.0687 35.5852 59.4365 35.2137 59.4365 34.7558C59.4365 34.296 59.0687 33.9282 58.6146 33.9282Z" fill="white"/>
<path d="M60.6863 27.1633C60.234 27.1633 59.8606 27.533 59.8606 27.9928C59.8606 28.4469 60.234 28.8185 60.6863 28.8185C61.1385 28.8185 61.512 28.4469 61.512 27.9928C61.512 27.533 61.1385 27.1633 60.6863 27.1633Z" fill="white"/>
<path d="M60.1532 20.3496C59.6972 20.3496 59.3237 20.7212 59.3237 21.1809C59.3237 21.6388 59.6972 22.0122 60.1532 22.0122C60.6035 22.0122 60.9751 21.6388 60.9751 21.1809C60.9751 20.7212 60.6035 20.3496 60.1532 20.3496Z" fill="white"/>
<path d="M64.0753 21.6238C63.6212 21.6238 63.2515 21.9935 63.2515 22.4513C63.2515 22.9074 63.6212 23.2789 64.0753 23.2789C64.5275 23.2789 64.8972 22.9074 64.8972 22.4513C64.8972 21.9935 64.5275 21.6238 64.0753 21.6238Z" fill="white"/>
<path d="M57.2108 17.7881C56.751 17.7881 56.3757 18.1596 56.3757 18.6175C56.3757 19.0717 56.751 19.4451 57.2108 19.4451C57.6649 19.4451 58.0327 19.0717 58.0327 18.6175C58.0327 18.1596 57.6649 17.7881 57.2108 17.7881Z" fill="white"/>
<path d="M55.582 14.6633C55.126 14.6633 54.7544 15.0311 54.7544 15.4909C54.7544 15.9488 55.126 16.3203 55.582 16.3203C56.038 16.3203 56.4077 15.9488 56.4077 15.4909C56.4077 15.0311 56.038 14.6633 55.582 14.6633Z" fill="white"/>
<path d="M59.0051 14.6633C58.5491 14.6633 58.1794 15.0311 58.1794 15.4909C58.1794 15.9488 58.5491 16.3203 59.0051 16.3203C59.4611 16.3203 59.8327 15.9488 59.8327 15.4909C59.8327 15.0311 59.4611 14.6633 59.0051 14.6633Z" fill="white"/>
<path d="M55.0979 12.3946C55.0979 12.0118 55.4057 11.7021 55.7847 11.7021C56.1694 11.7021 56.4772 12.0118 56.4772 12.3946C56.4772 12.7812 56.1694 13.0908 55.7847 13.0908C55.4057 13.0908 55.0979 12.7812 55.0979 12.3946Z" fill="white"/>
<path d="M57.1545 9.87836C57.1545 9.595 57.3779 9.3623 57.6687 9.3623C57.954 9.3623 58.1829 9.595 58.1829 9.87836C58.1829 10.1692 57.954 10.4057 57.6687 10.4057C57.3779 10.4057 57.1545 10.1692 57.1545 9.87836Z" fill="white"/>
<path d="M59.8154 8.6868C59.8154 8.44097 60.0143 8.23267 60.2658 8.23267C60.5229 8.23267 60.7274 8.44097 60.7274 8.6868C60.7274 8.94389 60.5229 9.14468 60.2658 9.14468C60.0143 9.14468 59.8154 8.94389 59.8154 8.6868Z" fill="white"/>
<path d="M71.1633 14.4026C71.1633 14.1774 71.3491 13.9897 71.5781 13.9897C71.8089 13.9897 71.9984 14.1774 71.9984 14.4026C71.9984 14.6372 71.8089 14.8211 71.5781 14.8211C71.3491 14.8211 71.1633 14.6372 71.1633 14.4026Z" fill="white"/>
<path d="M70.5721 22.6932C70.5627 22.4436 70.7579 22.2297 71.0075 22.2221C71.2533 22.2109 71.4672 22.4042 71.4747 22.6538C71.4935 22.9071 71.2946 23.1154 71.0487 23.1267C70.801 23.136 70.5871 22.9409 70.5721 22.6932Z" fill="white"/>
<path d="M71.7431 21.0906C71.7319 20.841 71.927 20.629 72.1747 20.6215C72.4206 20.6083 72.6308 20.8016 72.6439 21.0512C72.6495 21.3046 72.46 21.5147 72.2123 21.5204C71.9646 21.5354 71.7525 21.3421 71.7431 21.0906Z" fill="white"/>
<path d="M69.3353 24.279C69.3203 24.0257 69.5154 23.8136 69.7669 23.808C70.0108 23.7949 70.221 23.9863 70.2342 24.234C70.2379 24.4892 70.0503 24.6994 69.8007 24.7088C69.5567 24.7181 69.3428 24.523 69.3353 24.279Z" fill="white"/>
<path d="M67.9355 25.7635C67.9243 25.5101 68.1157 25.3 68.3634 25.2925C68.6148 25.2812 68.8175 25.4726 68.8344 25.7222C68.84 25.9774 68.6524 26.1895 68.399 26.1951C68.1551 26.2064 67.943 26.0149 67.9355 25.7635Z" fill="white"/>
<path d="M72.8144 19.5012C72.8069 19.2516 72.9946 19.0414 73.246 19.0302C73.4956 19.017 73.702 19.2085 73.7133 19.4637C73.7227 19.7132 73.5313 19.9272 73.2817 19.9347C73.0359 19.9478 72.8219 19.7489 72.8144 19.5012Z" fill="white"/>
<path d="M73.6459 18.1014C73.6328 17.8537 73.8242 17.6416 74.0756 17.6322C74.3233 17.6191 74.5279 17.8124 74.5391 18.0638C74.5579 18.319 74.3609 18.5273 74.1113 18.5386C73.8617 18.548 73.6534 18.3491 73.6459 18.1014Z" fill="white"/>
<path d="M22.076 53.1257C22.076 53.1257 19.0509 47.8863 21.1452 42.5062C23.4515 36.5593 30.0927 37.34 30.0927 37.34C29.0117 36.8521 27.8258 36.6025 26.5872 36.6513C21.9765 36.8333 18.3979 41.0556 18.5949 46.081C18.7075 48.9935 20.0624 51.5362 22.076 53.1257Z" fill="white" stroke="#ED6F27" stroke-width="1.17473" stroke-miterlimit="10"/>
<path d="M10.9197 36.4261C9.623 35.1238 8.81982 33.3223 8.81982 31.3331C8.81982 27.3548 12.0344 24.341 15.9977 24.129C20.0736 23.9094 27.5667 25.1367 32.3407 24.508C33.9902 31.9055 41.3126 39.0983 47.0568 42.3673C40.2354 39.3235 33.705 32.3877 27.9946 29.2088C22.0309 25.8948 16.0521 25.3975 12.9107 28.2968C10.2047 30.7945 10.4187 34.3319 10.9197 36.4261Z" fill="white"/>
<path d="M27.8053 43.8948C28.1712 46.0322 24.3374 46.704 24.3374 46.704C27.8259 47.327 29.1264 45.4486 29.1264 45.4486L27.8053 43.8948Z" fill="white"/>
<path d="M55.5766 45.0377L55.5785 45.0115C55.5785 45.0115 53.3153 48.2504 54.8691 54.1372C53.9252 55.0586 52.2006 55.8111 50.8289 56.1939C50.8289 56.1939 56.0908 56.8751 57.7346 54.0678C54.5595 51.5963 55.509 45.4562 55.5766 45.0377Z" fill="white"/>
<path d="M68.6393 14.9448C68.4197 16.159 67.0667 16.9302 65.6067 16.6581C64.1524 16.3917 63.1522 15.1944 63.3755 13.9822C63.5969 12.7718 64.9481 12.0024 66.4099 12.2726C67.8605 12.5353 68.8588 13.7382 68.6393 14.9448ZM66.0702 11.3099C64.0229 10.9327 62.1107 12.0193 61.801 13.7251C61.4914 15.4346 62.897 17.1235 64.9481 17.5007C67.001 17.8685 68.9132 16.7933 69.221 15.0856C69.5269 13.3723 68.1213 11.6871 66.0702 11.3099Z" fill="white"/>
<path d="M65.8881 14.4139C66.0045 13.7421 66.757 13.3199 67.5602 13.4662C68.3633 13.6164 68.9188 14.2788 68.7968 14.945C68.673 15.6187 67.9242 16.0409 67.1173 15.8926C66.3141 15.7481 65.7586 15.0857 65.8881 14.4139Z" fill="white"/>
<path d="M61.5984 42.1234C62.8576 44.4728 58.823 45.3379 58.823 45.3379C61.6266 45.8164 63.2367 44.0037 63.2367 43.2549C62.6362 40.7122 61.9719 42.6432 61.5984 42.1234Z" fill="white"/>
<path d="M70.0356 13.1771C69.0109 11.3944 67.0912 10.1784 64.8956 10.1784C62.8952 10.1784 61.1219 11.1861 60.0503 12.7042C59.7144 13.1152 59.1083 13.1753 58.6955 12.8356C58.2882 12.4959 58.2319 11.8917 58.566 11.4826C59.8195 10.0789 61.6905 9.16504 63.7547 9.16504C66.5695 9.16504 68.9884 10.8183 70.0356 13.1771Z" fill="white"/>
<path d="M63.625 25.4162C61.5063 25.3505 58.7928 24.3127 56.2576 22.4305C54.1277 20.8505 52.5269 18.9739 51.6675 17.2156C51.4911 16.9134 51.5924 16.5269 51.8945 16.3486C52.1929 16.1703 52.6058 16.2623 52.7615 16.5757C53.6867 18.4259 55.0659 20.477 57.1208 22.1678C59.2507 23.9262 61.5457 25.0296 63.625 25.4162Z" fill="white"/>
<path d="M60.812 31.2073C56.9913 30.9671 52.6245 28.9704 49.2579 25.5026C47.676 23.8681 46.49 22.1341 45.6756 20.3889C45.5011 20.0793 45.6118 19.6946 45.9195 19.5257C46.2273 19.3549 46.6308 19.4563 46.7828 19.7771C47.7717 21.8977 49.0065 24.1214 51.0388 26.1612C53.9531 29.083 57.4998 30.817 60.812 31.2073Z" fill="white"/>
<path d="M39.3705 22.5207C39.7045 22.4081 40.0461 22.5882 40.1737 22.9147C41.8063 26.9719 42.6808 28.6345 45.7902 31.9448C49.9862 36.4091 56.0832 38.0211 59.4554 38.0887C56.5918 38.342 49.5246 37.0003 44.6249 31.8941C41.8663 29.0173 39.8528 25.9773 38.9764 23.3276C38.8657 22.9973 39.0421 22.6351 39.3705 22.5207Z" fill="white"/>
<path d="M61.7635 17.6043C62.5911 18.1504 63.8071 18.6871 65.4322 18.7471C68.8588 18.8522 70.0373 16.1199 70.1799 15.0615C70.2268 15.8384 69.1966 19.616 64.9837 19.6741C63.3623 19.6929 62.09 19.3138 61.1911 18.7565C60.8778 18.5951 60.752 18.2123 60.9059 17.8951C61.0654 17.5818 61.4745 17.4129 61.7635 17.6043Z" fill="white"/>
<path d="M93.3426 26.1556H95.9285C97.3678 26.1556 98.4112 25.9154 99.0605 25.4331C99.7079 24.9508 100.031 24.1683 100.031 23.0818C100.031 22.0215 99.6929 21.269 99.0211 20.828C98.3455 20.3889 97.1989 20.1693 95.5851 20.1693H93.3426V26.1556ZM102.217 23.0818C102.217 24.7219 101.718 25.9435 100.721 26.7467C99.7248 27.5517 98.201 27.9514 96.1481 27.9514H91.2258V11.3157H101.205V13.1585H93.3426V18.3491H95.8366C97.9834 18.3491 99.5822 18.7244 100.635 19.475C101.69 20.2256 102.217 21.4285 102.217 23.0818Z" fill="#6E6F71"/>
<path d="M114.238 27.9514H104.848V11.3157H114.238V13.1585H106.964V18.3491H113.814V20.1693H106.964V26.1105H114.238V27.9514Z" fill="#6E6F71"/>
<path d="M143.582 20.9424L141.698 15.9019L140.893 13.4099C140.662 14.3219 140.42 15.1513 140.168 15.9019L138.26 20.9424H143.582ZM146.237 27.9514L144.214 22.7983H137.549L135.548 27.9514H133.411L139.971 11.248H141.882L148.435 27.9514H146.237Z" fill="#6E6F71"/>
<path d="M152.85 19.6814H154.539C156.211 19.6814 157.422 19.4131 158.172 18.8764C158.923 18.3434 159.298 17.4821 159.298 16.2998C159.298 15.2302 158.949 14.4289 158.251 13.8978C157.555 13.3686 156.467 13.1022 154.988 13.1022H152.85V19.6814ZM161.496 16.2079C161.496 17.9081 160.908 19.2104 159.736 20.1168C158.563 21.0232 156.911 21.4773 154.781 21.4773H152.85V27.9514H150.734V11.3157H155.183C159.39 11.3157 161.496 12.9483 161.496 16.2079Z" fill="#6E6F71"/>
<path d="M166.446 28.1804C165.583 28.1804 164.819 28.0678 164.16 27.8389V25.8591C164.858 26.1687 165.596 26.3245 166.38 26.3245C167.198 26.3245 167.859 26.1349 168.362 25.7559C168.865 25.3768 169.347 24.6881 169.816 23.6841L163.344 11.3157H165.665L170.471 20.5672C170.663 20.9237 170.828 21.3178 170.965 21.7513H171.057L171.147 21.4773L171.503 20.5446L175.529 11.3157H177.771L172.402 23.2187C171.766 24.6299 171.188 25.6583 170.666 26.3019C170.147 26.9475 169.55 27.4223 168.878 27.7244C168.21 28.0303 167.397 28.1804 166.446 28.1804Z" fill="#6E6F71"/>
<path d="M186.685 12.922C184.876 12.922 183.455 13.5206 182.419 14.7179C181.385 15.9151 180.867 17.5552 180.867 19.6345C180.867 21.7813 181.37 23.4364 182.372 24.5999C183.378 25.7671 184.808 26.3488 186.662 26.3488C187.858 26.3488 189.203 26.1274 190.697 25.6883V27.5104C189.984 27.7675 189.299 27.9439 188.64 28.0396C187.981 28.1334 187.221 28.1804 186.364 28.1804C183.887 28.1804 181.982 27.4335 180.646 25.9435C179.306 24.4535 178.638 22.3424 178.638 19.6119C178.638 17.8986 178.957 16.3955 179.597 15.1044C180.235 13.8152 181.168 12.8225 182.393 12.1244C183.615 11.4264 185.052 11.0754 186.709 11.0754C188.484 11.0754 190.034 11.402 191.352 12.055L190.502 13.8321C189.16 13.2241 187.889 12.922 186.685 12.922Z" fill="#6E6F71"/>
<path d="M206.717 27.9514H204.165L196.567 19.52V27.9514H194.452V11.3157H196.567V19.3718L203.981 11.3157H206.383L199.083 19.3943L206.717 27.9514Z" fill="#6E6F71"/>
<path d="M211.923 27.9514H209.804V11.3157H211.923V27.9514Z" fill="#6E6F71"/>
<path d="M104.955 52.8761H101.412V45.6457H94.7782V52.8761H91.2258V36.1221H94.7782V42.6882H101.412V36.1221H104.955V52.8761Z" fill="#6E6F71"/>
<path d="M117.88 45.9085C116.758 42.2942 116.126 40.2506 115.983 39.7758C115.842 39.3048 115.743 38.9295 115.681 38.6555C115.428 39.6332 114.705 42.0502 113.513 45.9085H117.88ZM119.943 52.8762L118.727 48.8885H112.62L111.404 52.8762H107.578L113.489 36.0527H117.835L123.771 52.8762H119.943Z" fill="#6E6F71"/>
<path d="M129.945 44.0055H131.114C132.208 44.0055 133.024 43.7916 133.567 43.3581C134.109 42.9265 134.383 42.2979 134.383 41.4722C134.383 40.6408 134.154 40.0253 133.698 39.6275C133.244 39.2315 132.533 39.0326 131.563 39.0326H129.945V44.0055ZM137.967 41.3464C137.967 43.1498 137.404 44.5291 136.278 45.4843C135.151 46.4394 133.548 46.9161 131.471 46.9161H129.945V52.8761H126.395V36.1221H131.745C133.779 36.1221 135.323 36.5593 136.382 37.4338C137.438 38.3083 137.967 39.6125 137.967 41.3464Z" fill="#6E6F71"/>
<path d="M152.822 44.4767C152.822 40.7011 151.411 38.8151 148.592 38.8151C145.295 38.8151 144.318 41.3447 144.318 44.4767C144.318 47.6087 145.295 50.1383 148.592 50.1383C151.411 50.1383 152.822 48.2505 152.822 44.4767ZM140.593 44.4767C140.593 41.69 141.283 39.5357 142.66 38.0645C144.04 36.5952 146.018 35.8577 148.592 35.8577C151.165 35.8577 153.136 36.5989 154.5 38.0814C155.864 39.5639 156.543 41.6957 156.543 44.4767C156.543 47.2559 155.864 49.3896 154.5 50.8721C153.136 52.3546 151.165 53.0939 148.592 53.0939C146.018 53.0939 144.04 52.3583 142.66 50.889C141.283 49.4177 140.593 47.2634 140.593 44.4767Z" fill="#6E6F71"/>
<path d="M191.817 52.8761H188.274V45.6457H181.641V52.8761H178.09V36.1221H181.641V42.6882H188.274V36.1221H191.817V52.8761Z" fill="#6E6F71"/>
<path d="M211.923 52.876H208.38V36.1201H211.923V52.876ZM198.434 49.9654H199.363C200.532 49.9654 201.388 49.7721 201.928 49.3875C202.472 49.0009 202.744 48.4173 202.744 47.6385C202.744 46.8597 202.48 46.3024 201.956 45.9646C201.435 45.6306 200.515 45.4617 199.203 45.4617H198.434V49.9654ZM206.366 47.6385C206.366 49.3799 205.784 50.6879 204.63 51.5624C203.471 52.4388 201.757 52.876 199.489 52.876H194.906V36.122H198.456V42.5511H199.603C201.752 42.5511 203.414 42.9959 204.595 43.8872C205.775 44.7767 206.366 46.0265 206.366 47.6385Z" fill="#6E6F71"/>
<path d="M226.859 49.9655H228.05C229.249 49.9655 230.127 49.7722 230.685 49.3875C231.242 49.001 231.524 48.4173 231.524 47.6386C231.524 46.8673 231.238 46.3118 230.675 45.9722C230.109 45.6325 229.137 45.4617 227.763 45.4617H226.859V49.9655ZM226.859 42.5512H228.255C230.443 42.5512 232.13 42.9941 233.321 43.8798C234.513 44.7655 235.11 46.0191 235.11 47.6386C235.11 51.1309 232.803 52.8761 228.187 52.8761H223.306V36.1221H233.894V39.0551H226.859V42.5512Z" fill="#6E6F71"/>
<path d="M247.255 45.9085C246.134 42.2942 245.502 40.2506 245.359 39.7758C245.219 39.3048 245.117 38.9295 245.057 38.6555C244.804 39.6332 244.081 42.0502 242.89 45.9085H247.255ZM249.317 52.8762L248.103 48.8885H241.995L240.78 52.8762H236.954L242.865 36.0527H247.21L253.145 52.8762H249.317Z" fill="#6E6F71"/>
<path d="M268.717 52.8761H265.176V45.6457H258.542V52.8761H254.992V36.1221H258.542V42.6882H265.176V36.1221H268.717V52.8761Z" fill="#6E6F71"/>
<path d="M285 52.8761H280.969L274.893 44.3846V52.8761H271.343V36.1221H274.893V44.2345L280.9 36.1221H284.679L278.575 44.1669L285 52.8761Z" fill="#6E6F71"/>
<path d="M120.733 11.3157C120.729 13.5507 120.706 15.5023 120.658 17.2775C120.611 19.0978 120.489 20.6873 120.301 22.0084C120.11 23.3332 119.809 24.3766 119.4 25.1084C118.984 25.861 118.396 26.2419 117.655 26.2419C117.336 26.2419 117.038 26.2062 116.76 26.1293V28.0002C116.905 28.0622 117.094 28.1128 117.319 28.1466C117.573 28.1841 117.82 28.2048 118.059 28.2048C118.785 28.2048 119.41 28.0209 119.916 27.655C120.423 27.289 120.857 26.7636 121.2 26.0936C121.543 25.42 121.821 24.6055 122.026 23.6766C122.225 22.7496 122.38 21.7081 122.487 20.5897C122.585 19.5013 122.658 18.3003 122.701 17.0167C122.737 15.8082 122.767 14.4908 122.782 13.1003V13.0215H129.127V27.9702H131.101V11.3157H120.733Z" fill="#6E6F71"/>
<path d="M170.359 49.3763V39.0608H165.314C165.322 42.6506 165.266 46.2518 163.515 49.3763H170.359ZM158.39 49.3763H159.756C162.458 45.6944 161.957 40.547 161.987 36.1221H173.69V49.3763H175.465V55.3419H171.869V52.3844H161.818V55.3419H158.39V49.3763Z" fill="#6E6F71"/>
</svg>
